<svg id="Layer_1" data-name="Layer 1" xmlns="http://www.w3.org/2000/svg" viewBox="0 0 800 350"><defs><style>.cls-1{fill:#fff;}.cls-2{fill:#8ec641;fill-rule:evenodd;}</style></defs><path class="cls-1" d="M27.2,298.8V280.63Q52,296.4,77.36,296.39q27,0,41-11.18t14-31.27q0-17.69-9.4-28.21T82.18,197q-35-20.42-44.37-34.16t-9.32-31.76q0-24.44,19-41.48t50.64-17a128.56,128.56,0,0,1,41.16,6.92V96.22A103.86,103.86,0,0,0,96,87.06q-23.48,0-37.22,11.9T45.05,129.18q0,17.69,9.4,28.14t40.6,28.45q32.31,18.33,43,32.56a53,53,0,0,1,10.69,32.72q0,26.52-18.4,43.25T78.33,311a120.36,120.36,0,0,1-27.42-3.7Q35.4,303.62,27.2,298.8Z"/><path class="cls-1" d="M212,307V291.17h-.31a31,31,0,0,1-11,12.93,28.2,28.2,0,0,1-16,4.83q-11.26,0-17.83-6.33a21.25,21.25,0,0,1-6.56-16q0-20.69,27.4-25L212,258q0-25.47-19.15-25.47-13,0-25.39,10.5v-8.57a38.59,38.59,0,0,1,11.92-5.95A45.73,45.73,0,0,1,193.51,226q12.19,0,18.87,7.57t6.68,22V307Zm-21.77-39.37q-12.44,1.77-17.45,5.75t-5,12.93a15.51,15.51,0,0,0,4.67,11.58q4.68,4.56,13,4.55a24.42,24.42,0,0,0,19-8.45q7.56-8.44,7.57-21.81v-7.71Z"/><path class="cls-1" d="M288.65,307V261q0-28.49-20.53-28.48a23.82,23.82,0,0,0-18.76,8.37Q242,249.27,242,261.61V307h-7.1V228H242v14.36h.31Q251,226,269.35,226q12.81,0,19.61,8.53t6.79,24.36V307Z"/><path class="cls-1" d="M342.88,305.92a24.49,24.49,0,0,1-10.42,2.62q-17.52,0-17.52-21v-53.1h-14.2V228h14.2V207.42c1.13-.41,2.32-.82,3.55-1.23s2.42-.75,3.55-1.16V228h20.84v6.49H322v52.18q0,8.17,2.59,11.85t8.76,3.66a19.61,19.61,0,0,0,9.49-2.85Z"/><path class="cls-1" d="M402.83,307V292.64h-.31q-8.26,16.29-25.47,16.29-28,0-28-35.28V228h7.18v43.93q0,16,5.28,23.31t16.64,7.25a22.26,22.26,0,0,0,17.87-8.1q6.83-8.1,6.83-21.61V228h7.1V307Z"/><path class="cls-1" d="M526.46,307V259.45q0-14.89-4.67-20.92t-14.79-6q-9.33,0-16.13,8t-6.79,20.14V307H477V258.91q0-26.4-20.07-26.4-9.65,0-16.06,8.07t-6.4,20.88V307h-7.11V228h7.11v13.13h.3Q443,226,458.91,226a22.72,22.72,0,0,1,14.79,5,24.53,24.53,0,0,1,8.3,13.09,30.2,30.2,0,0,1,10.61-13.32,26,26,0,0,1,15-4.75q25.93,0,25.94,32.12V307Z"/><path class="cls-1" d="M716.43,307l-26.36-71.71h-100L563.7,307H546.18l87-230.55h15.12l86,230.55ZM645.69,114.07a86.38,86.38,0,0,1-2.89-9.48q-1.12-4-2.41-8h-.64a158.07,158.07,0,0,1-5.31,17.2L595.69,220.66H684.6Z"/><path class="cls-1" d="M756.88,307V76.45H772.8V307Z"/><path class="cls-2" d="M263,145.09a41,41,0,0,1-15.12,6.06,125.17,125.17,0,0,0,12.64,10.53c28.83,15.37,40.65-7.43,40.65-7.43C282.76,128.61,263,145.09,263,145.09ZM297,155.16l-13.77-.36c-2.41,6.89-8,7.11-8,7.11a9.14,9.14,0,0,0,4.65-7.2l-6.58-.18c-2,4.84-8.47,5.14-8.47,5.14a6.84,6.84,0,0,0,5.28-5.06,44,44,0,0,1-14.75-2.49,43.41,43.41,0,0,0,15.07.51c.73-3.6-4.42-5.33-4.42-5.33,6.7-.46,7.08,5.29,7.08,5.29l7.22.19c-.39-5.53-7-7.83-7-7.83a10.2,10.2,0,0,1,9.78,7.9l4.35.12c.66-5-4.67-8.41-4.67-8.41,7.49,2.21,7.21,8.58,7.21,8.58l7.09.24Z"/><path class="cls-2" d="M450.54,154.78s11.82,22.8,40.65,7.42a123.78,123.78,0,0,0,12.64-10.53,40.77,40.77,0,0,1-15.12-6.06S468.9,129.14,450.54,154.78Zm4.07-.87,7.08-.24s-.27-6.37,7.21-8.59c0,0-5.33,3.44-4.67,8.41l4.36-.11a10.21,10.21,0,0,1,9.77-7.91s-6.63,2.3-7,7.83l7.21-.19s.38-5.74,7.09-5.28c0,0-5.16,1.73-4.43,5.32a43.24,43.24,0,0,0,15.07-.5,43.8,43.8,0,0,1-14.75,2.48,6.87,6.87,0,0,0,5.28,5.07s-6.48-.31-8.47-5.14l-6.58.17a9.16,9.16,0,0,0,4.65,7.21s-5.58-.23-8-7.12l-13.78.36Z"/><path class="cls-2" d="M282.39,98.65a40.77,40.77,0,0,1-16.19-1.73,124.38,124.38,0,0,0,6.23,15.22c18.26,27.1,39.38,12.49,39.38,12.49C307.61,93.38,282.39,98.65,282.39,98.65Zm25.37,24.86-12-6.78c-5.36,5-10.4,2.54-10.4,2.54a9.17,9.17,0,0,0,7.49-4.18l-5.73-3.24c-4,3.34-9.9.57-9.9.57a6.88,6.88,0,0,0,7-2,43.82,43.82,0,0,1-11.86-9.11,43.34,43.34,0,0,0,13.07,7.51c2.33-2.83-1.41-6.78-1.41-6.78,6.14,2.74,3.78,8,3.78,8l6.29,3.55c2.25-5.07-2.53-10.21-2.53-10.21a10.21,10.21,0,0,1,4.93,11.57l3.79,2.14c2.92-4.08-.18-9.61-.18-9.61,5.57,5.46,2.35,11,2.35,11l6.14,3.53Z"/><path class="cls-2" d="M441.07,125.68s21.13,14.61,39.39-12.49A124.38,124.38,0,0,0,486.69,98,40.77,40.77,0,0,1,470.5,99.7S445.28,94.43,441.07,125.68Zm3.18-2.67,6.15-3.53s-3.23-5.5,2.34-11c0,0-3.09,5.53-.18,9.61l3.79-2.14a10.23,10.23,0,0,1,4.94-11.57s-4.78,5.14-2.53,10.21l6.29-3.55s-2.36-5.25,3.78-8c0,0-3.75,4-1.42,6.78a43.44,43.44,0,0,0,13.08-7.51,43.77,43.77,0,0,1-11.87,9.11,6.88,6.88,0,0,0,7,2s-5.87,2.77-9.89-.57L460,116.14a9.14,9.14,0,0,0,7.48,4.18s-5,2.42-10.4-2.54l-12,6.78Z"/><path class="cls-2" d="M327.77,64.3a40.83,40.83,0,0,1-12.16-10.83,125.34,125.34,0,0,0-3.8,16c-.94,32.66,24.74,33.09,24.74,33.09C351.34,74.71,327.77,64.3,327.77,64.3Zm6.14,35-5.8-12.5c-7.25.91-9.94-4-9.94-4a9.19,9.19,0,0,0,8.53,1l-2.78-6c-5.21.37-8.37-5.3-8.37-5.3A6.87,6.87,0,0,0,322.43,75a44,44,0,0,1-4.34-14.32,43.43,43.43,0,0,0,6.26,13.72c3.54-1,2.8-6.34,2.8-6.34,3.39,5.8-1.58,8.7-1.58,8.7l3,6.55c4.78-2.81,3.89-9.77,3.89-9.77a10.21,10.21,0,0,1-2.73,12.27l1.84,4c4.75-1.62,5.45-7.92,5.45-7.92,1.35,7.69-4.47,10.28-4.47,10.28l2.94,6.45Z"/><path class="cls-2" d="M415.65,102.71s25.58-2.33,22.23-34.83a123.81,123.81,0,0,0-5-15.68,40.72,40.72,0,0,1-11.32,11.7S398.85,76,415.65,102.71Zm.73-4.09L418.83,92s-6-2.15-5.22-9.92c0,0,1.17,6.23,6,7.49l1.53-4.07a10.22,10.22,0,0,1-3.63-12s-.37,7,4.61,9.46l2.55-6.76s-5.18-2.52-2.22-8.55c0,0-.35,5.43,3.25,6.11A43.32,43.32,0,0,0,431,59.54a44,44,0,0,1-3.27,14.6,6.88,6.88,0,0,0,6.69-3s-2.74,5.89-8,5.91l-2.33,6.16a9.18,9.18,0,0,0,8.43-1.59s-2.31,5.08-9.61,4.71l-4.86,12.89Z"/><path class="cls-2" d="M375.54,92.36S398.9,81.68,385,52.13A123.5,123.5,0,0,0,375.07,39a40.77,40.77,0,0,1-6.8,14.8S350.84,72.76,375.54,92.36Zm-.67-4.1.11-7.09s-6.37,0-8.21-7.62c0,0,3.16,5.49,8.16,5.07l.1-4.35a10.21,10.21,0,0,1-7.41-10.16s2,6.74,7.48,7.4l.16-7.22s-5.72-.66-4.93-7.34c0,0,1.48,5.24,5.1,4.69a43.48,43.48,0,0,0,.24-15.08,43.81,43.81,0,0,1,1.76,14.86,6.88,6.88,0,0,0,5.32-5s-.63,6.46-5.56,8.21L377,71.18a9.16,9.16,0,0,0,7.43-4.29s-.5,5.56-7.5,7.63l-.32,13.78Z"/><path class="cls-2" d="M407.43,117.6s-12-8.36-30.47-9c0,0-28.22-1.7-46.08,18.88,0,0-15.31,14.24-8,33.27,0,0,3.6,11.3,18.91,18.11a81.63,81.63,0,0,0,42.63,7s42.78-1.4,45.64-33.59C430.1,152.26,431.9,132.14,407.43,117.6Zm-47.8,31.76a31.09,31.09,0,0,0-13.06-1.19,23.8,23.8,0,0,0-9.44,2.76s-1.17.8-1,0c0,0-.12-11.24,13.34-11.49,0,0,8.4.26,11.4,9.57C360.91,149,361.48,150.24,359.63,149.36ZM385,164c-4.55,7.43-13,6.37-13,6.37-8.37-1.79-10.27-6.47-10.27-6.47-.82-2,1.78-.4,1.78-.4,11.62,4.44,20.17-.38,20.17-.38C385.37,161.8,385,164,385,164Zm28.89-15.51a31.17,31.17,0,0,0-13.05-1.32,23.76,23.76,0,0,0-9.47,2.69s-1.17.78-1,0c0,0,0-11.24,13.45-11.37,0,0,8.4.33,11.31,9.67C415.14,148.13,415.7,149.36,413.86,148.47Z"/></svg>