<svg xmlns="http://www.w3.org/2000/svg" version="1.1" xmlns:xlink="http://www.w3.org/1999/xlink" width="1000" height="1000"><metadata><rdf:RDF xmlns:rdf="http://www.w3.org/1999/02/22-rdf-syntax-ns#" xmlns:dc="http://purl.org/dc/elements/1.1/"><rdf:Description><dc:creator>RealFaviconGenerator</dc:creator><dc:source>https://realfavicongenerator.net</dc:source></rdf:Description></rdf:RDF></metadata><g clip-path="url(#SvgjsClipPath1084)"><rect width="1000" height="1000" fill="#323d51"></rect><g transform="matrix(1.6666666666666667,0,0,1.6666666666666667,0,166.66666666666663)"><svg xmlns="http://www.w3.org/2000/svg" id="Layer_1" data-name="Layer 1" viewBox="0 0 600 400" width="600" height="400"><defs><style>.cls-1{fill:#8ec641;fill-rule:evenodd;}</style><clipPath id="SvgjsClipPath1084"><rect width="1000" height="1000" x="0" y="0" rx="250" ry="250"></rect></clipPath></defs><path class="cls-1" d="M85.05,261.78a77.8,77.8,0,0,1-28.78,11.54c15.16,14,24.06,20.05,24.06,20.05,54.9,29.28,77.4-14.14,77.4-14.14C122.77,230.41,85.05,261.78,85.05,261.78ZM149.91,281l-26.23-.69c-4.59,13.12-15.22,13.55-15.22,13.55,8.41-4.43,8.86-13.72,8.86-13.72l-12.54-.33c-3.78,9.2-16.13,9.79-16.13,9.79,8.75-2.2,10.06-9.65,10.06-9.65a83.32,83.32,0,0,1-28.09-4.74c16.7,3.28,28.7,1,28.7,1,1.39-6.84-8.43-10.13-8.43-10.13,12.76-.88,13.49,10.06,13.49,10.06l13.74.37c-.73-10.54-13.36-14.92-13.36-14.92,15.76.62,18.62,15.06,18.62,15.06l8.28.21c1.26-9.47-8.88-16-8.88-16,14.25,4.22,13.73,16.34,13.73,16.34l13.49.46Z"></path><path class="cls-1" d="M442.27,280.23s22.5,43.42,77.4,14.14c0,0,8.9-6.06,24.06-20.05A77.8,77.8,0,0,1,515,262.78S477.23,231.41,442.27,280.23Zm7.73-1.66,13.49-.46S463,266,477.22,261.77c0,0-10.14,6.54-8.88,16l8.28-.21s2.86-14.44,18.62-15.06c0,0-12.63,4.38-13.36,14.92l13.74-.37s.73-10.94,13.49-10.06c0,0-9.82,3.29-8.43,10.13,0,0,12,2.32,28.7-1a83.32,83.32,0,0,1-28.09,4.74s1.31,7.45,10.06,9.65c0,0-12.35-.59-16.13-9.79l-12.54.33s.45,9.29,8.86,13.72c0,0-10.63-.43-15.22-13.55l-26.23.69Z"></path><path class="cls-1" d="M122.07,173.35a77.64,77.64,0,0,1-30.84-3.3c6.84,19.47,11.86,29,11.86,29,34.77,51.59,75,23.78,75,23.78C170.09,163.32,122.07,173.35,122.07,173.35Zm48.3,47.33-22.84-12.9c-10.21,9.45-19.8,4.84-19.8,4.84,9.5,0,14.25-8,14.25-8l-10.91-6.16c-7.66,6.35-18.84,1.08-18.84,1.08,8.76,2.16,13.41-3.8,13.41-3.8A83.67,83.67,0,0,1,103,178.42c13.22,10.72,24.9,14.29,24.9,14.29,4.44-5.39-2.7-12.9-2.7-12.9,11.69,5.21,7.2,15.21,7.2,15.21l12,6.77c4.3-9.66-4.81-19.44-4.81-19.44,13.64,7.93,9.39,22,9.39,22l7.22,4.08c5.55-7.78-.34-18.31-.34-18.31,10.61,10.41,4.47,20.87,4.47,20.87l11.7,6.73Z"></path><path class="cls-1" d="M424.23,224.83s40.23,27.81,75-23.78c0,0,5-9.53,11.86-29a77.61,77.61,0,0,1-30.83,3.3S432.23,165.32,424.23,224.83Zm6-5.09L442,213s-6.15-10.46,4.47-20.87c0,0-5.9,10.53-.35,18.31l7.22-4.08s-4.24-14.09,9.39-22c0,0-9.1,9.78-4.81,19.44l12-6.77s-4.49-10,7.2-15.21c0,0-7.14,7.51-2.7,12.9,0,0,11.68-3.57,24.9-14.29a83.52,83.52,0,0,1-22.59,17.35s4.64,6,13.41,3.8c0,0-11.19,5.27-18.84-1.08l-10.92,6.16s4.75,8,14.26,8c0,0-9.6,4.61-19.81-4.84L432,222.68Z"></path><path class="cls-1" d="M208.47,108a77.71,77.71,0,0,1-23.15-20.63c-5.77,19.81-7.24,30.47-7.24,30.47-1.77,62.19,47.13,63,47.13,63C253.35,127.76,208.47,108,208.47,108Zm11.71,66.61-11.06-23.79c-13.8,1.74-18.92-7.59-18.92-7.59,7.72,5.55,16.24,1.82,16.24,1.82l-5.29-11.37c-9.92.71-16-10.09-16-10.09,5.87,6.86,13.12,4.72,13.12,4.72A83.43,83.43,0,0,1,190.05,101c4.51,16.42,11.92,26.13,11.92,26.13,6.75-1.8,5.32-12.06,5.32-12.06,6.47,11-3,16.56-3,16.56l5.8,12.46c9.11-5.34,7.41-18.6,7.41-18.6,6.46,14.39-5.19,23.37-5.19,23.37l3.49,7.52c9-3.09,10.38-15.08,10.38-15.08,2.57,14.64-8.52,19.57-8.52,19.57l5.6,12.28Z"></path><path class="cls-1" d="M375.83,181.08s48.7-4.44,42.32-66.33c0,0-2.24-10.53-9.47-29.86a77.78,77.78,0,0,1-21.56,22.3S343.83,130.27,375.83,181.08Zm1.38-7.79,4.68-12.66s-11.43-4.1-9.95-18.89c0,0,2.22,11.87,11.47,14.28l2.93-7.76s-12.29-8.1-6.91-22.92c0,0-.72,13.34,8.76,18l4.86-12.86s-9.86-4.8-4.23-16.29c0,0-.66,10.34,6.2,11.63,0,0,6.68-10.23,10-26.93a83.45,83.45,0,0,1-6.22,27.8s7.39,1.6,12.73-5.68c0,0-5.21,11.22-15.16,11.24L391.9,144s8.77,3.1,16.05-3c0,0-4.41,9.69-18.3,9l-9.27,24.55Z"></path><path class="cls-1" d="M299.45,161.37S343.93,141,317.39,84.76c0,0-5.62-9.19-18.84-25A77.66,77.66,0,0,1,285.6,87.92S252.41,124.05,299.45,161.37Zm-1.28-7.8.21-13.5s-12.13-.08-15.64-14.52c0,0,6,10.46,15.55,9.66l.19-8.28s-14.28-3.57-14.12-19.34c0,0,3.75,12.83,14.24,14.08l.32-13.75s-10.9-1.26-9.39-14c0,0,2.8,10,9.71,8.92,0,0,2.9-11.86.45-28.71a83.41,83.41,0,0,1,3.35,28.3s7.5-.94,10.13-9.58c0,0-1.19,12.31-10.57,15.63l-.29,12.54s9.3,0,14.14-8.17c0,0-.95,10.59-14.29,14.53l-.6,26.23Z"></path><path class="cls-1" d="M360.17,209.43s-22.87-15.91-58-17.09c0,0-53.74-3.24-87.76,35.95,0,0-29.15,27.11-15.14,63.36,0,0,6.86,21.51,36,34.48,0,0,35.16,18.27,81.18,13.26,0,0,81.46-2.65,86.89-63.95C403.33,275.44,406.76,237.13,360.17,209.43Zm-91,60.49a59.41,59.41,0,0,0-24.87-2.28,45.17,45.17,0,0,0-18,5.27s-2.22,1.52-1.83,0c0,0-.23-21.4,25.41-21.88,0,0,16,.49,21.71,18.22C271.59,269.26,272.68,271.59,269.15,269.92Zm48.25,27.83c-8.67,14.15-24.82,12.14-24.82,12.14C276.64,306.48,273,297.57,273,297.57c-1.56-3.78,3.38-.77,3.38-.77,22.13,8.45,38.41-.72,38.41-.72C318.16,293.61,317.4,297.75,317.4,297.75Zm55-29.54a59.32,59.32,0,0,0-24.85-2.5,45.12,45.12,0,0,0-18,5.11s-2.24,1.5-1.83,0c0,0,0-21.4,25.6-21.65,0,0,16,.63,21.54,18.41C374.85,267.57,375.92,269.91,372.41,268.21Z"></path></svg></g></g></svg>